<?xml version="1.0" standalone="no"?>
<!DOCTYPE svg PUBLIC "-//W3C//DTD SVG 20010904//EN"
 "http://www.w3.org/TR/2001/REC-SVG-20010904/DTD/svg10.dtd">
<svg version="1.0" xmlns="http://www.w3.org/2000/svg"
 width="534.000000pt" height="534.000000pt" viewBox="0 0 534.000000 534.000000"
 preserveAspectRatio="xMidYMid meet">

<g transform="translate(0.000000,534.000000) scale(0.100000,-0.100000)"
fill="#000000" stroke="none">
<path d="M2475 4933 c-195 -23 -299 -43 -445 -85 -764 -219 -1368 -848 -1565
-1627 -43 -173 -57 -279 -62 -496 -6 -238 8 -376 57 -580 191 -795 797 -1432
1573 -1654 205 -58 343 -80 552 -88 525 -19 1026 139 1452 459 124 93 287 250
384 370 l79 99 0 -106 0 -105 220 0 220 0 0 885 0 885 -220 0 -220 0 -1 -137
c-2 -381 -59 -630 -210 -923 -237 -459 -665 -802 -1159 -929 -185 -48 -257
-56 -480 -55 -179 1 -221 5 -331 27 -272 57 -500 156 -722 314 -95 68 -273
237 -350 332 -185 227 -311 492 -375 790 -25 117 -27 143 -26 361 0 216 2 245
27 361 122 575 482 1035 1009 1289 268 129 506 179 851 180 l157 0 0 220 0
220 -192 -1 c-106 -1 -206 -4 -223 -6z"/>
<path d="M2370 2335 l0 -1215 265 0 265 0 0 990 0 990 613 2 612 3 108 213
c59 117 105 217 102 222 -4 6 -368 10 -986 10 l-979 0 0 -1215z"/>
<path d="M4504 3537 c-2 -7 -3 -107 -2 -222 l3 -210 218 -3 217 -2 0 225 0
226 -216 -1 c-158 -1 -216 -5 -220 -13z"/>
</g>
</svg>
