<?xml version="1.0" standalone="no"?>
<!DOCTYPE svg PUBLIC "-//W3C//DTD SVG 20010904//EN"
 "http://www.w3.org/TR/2001/REC-SVG-20010904/DTD/svg10.dtd">
<svg version="1.0" xmlns="http://www.w3.org/2000/svg"
 width="3996.000000pt" height="2550.000000pt" viewBox="0 0 3996.000000 2550.000000"
 preserveAspectRatio="xMidYMid meet">

<g transform="translate(0.000000,2550.000000) scale(0.100000,-0.100000)"
fill="#000000" stroke="none">
<path d="M15795 23915 c-628 -72 -1140 -283 -1549 -640 -291 -254 -521 -649
-621 -1065 -74 -313 -74 -754 1 -1060 83 -336 277 -649 541 -870 394 -330 890
-542 1833 -785 508 -131 768 -217 1028 -340 280 -134 478 -298 561 -465 70
-143 84 -284 44 -445 -53 -214 -278 -417 -572 -515 -412 -138 -991 -116 -1434
56 -198 76 -434 218 -622 375 -55 46 -178 161 -273 256 l-173 174 -612 -387
c-337 -212 -618 -392 -625 -398 -10 -10 -1 -30 43 -102 218 -347 596 -681
1070 -945 499 -277 1090 -453 1680 -500 190 -15 637 -6 795 16 613 85 1123
301 1525 647 322 278 568 669 670 1066 101 397 95 863 -16 1202 -84 258 -268
534 -475 716 -394 345 -914 575 -1907 844 -863 234 -1198 377 -1433 614 -138
139 -194 270 -194 451 1 155 58 281 190 415 158 160 402 269 673 301 127 15
416 6 547 -16 286 -48 571 -155 814 -307 159 -100 381 -273 518 -406 l56 -55
604 388 c331 213 609 393 616 400 11 10 0 28 -61 101 -111 132 -238 264 -367
383 -507 463 -1209 780 -1954 882 -198 27 -736 35 -921 14z"/>
<path d="M19757 23073 c-4 -3 -7 -440 -7 -970 l0 -963 -385 0 -385 0 0 -595 0
-595 385 0 385 0 0 -797 c0 -439 5 -863 10 -941 23 -332 121 -635 300 -923
288 -464 765 -795 1304 -904 187 -38 370 -46 936 -43 l515 3 0 620 0 620 -590
5 -590 5 -68 27 c-185 75 -325 229 -372 413 -13 52 -15 353 -15 2552 l0 2493
-708 0 c-390 0 -712 -3 -715 -7z"/>
<path d="M25735 21769 c-585 -60 -1133 -306 -1585 -711 -422 -379 -748 -952
-853 -1504 -38 -196 -49 -320 -49 -534 0 -453 86 -818 288 -1221 375 -748
1067 -1295 1866 -1473 232 -52 313 -60 613 -60 240 0 300 3 420 22 419 66 762
201 1130 447 406 272 719 630 940 1080 148 301 223 548 267 875 16 123 16 537
0 660 -44 327 -119 574 -267 875 -172 350 -414 662 -700 902 -142 120 -370
269 -542 356 -323 163 -598 246 -943 282 -144 16 -453 18 -585 4z m423 -1249
c244 -31 473 -146 675 -340 131 -125 214 -237 292 -395 73 -147 113 -262 146
-415 20 -90 23 -136 23 -320 1 -186 -2 -230 -22 -328 -67 -333 -214 -613 -439
-835 -115 -113 -203 -177 -338 -243 -305 -148 -647 -149 -953 -4 -137 66 -225
125 -329 224 -556 526 -653 1440 -221 2087 37 55 105 137 168 199 286 287 633
415 998 370z"/>
<path d="M32210 21774 c-252 -30 -364 -52 -525 -106 -339 -112 -652 -333 -855
-602 l-45 -59 -3 346 -2 347 -728 -2 -727 -3 0 -2675 0 -2675 728 -3 727 -2 0
1477 c0 1423 1 1481 19 1558 62 255 186 477 380 678 135 139 245 222 396 296
228 113 412 155 675 155 251 -1 433 -42 659 -150 62 -31 114 -54 115 -52 1 2
126 224 276 493 151 270 300 533 332 585 32 52 54 98 50 102 -18 18 -251 114
-382 158 -156 52 -318 91 -482 116 -98 15 -526 28 -608 18z"/>
<path d="M35805 21774 c-16 -2 -73 -9 -125 -15 -585 -67 -1184 -361 -1615
-793 -183 -183 -346 -401 -474 -633 -451 -818 -449 -1835 5 -2645 135 -240
284 -439 469 -623 459 -459 1053 -735 1714 -795 164 -15 501 -8 649 14 511 77
997 292 1382 614 194 162 502 512 469 533 -8 4 -292 130 -631 280 l-618 272
-22 -29 c-12 -16 -58 -67 -103 -113 -185 -192 -381 -273 -731 -303 -349 -29
-623 51 -905 264 -287 216 -483 515 -582 887 -30 113 -31 121 -31 341 0 212 1
232 28 345 33 143 78 264 147 396 190 363 557 635 967 716 131 26 375 23 512
-6 325 -69 607 -262 822 -563 85 -117 177 -298 213 -415 l6 -23 -1014 -2
-1014 -3 340 -542 340 -543 1363 0 1363 0 10 38 c17 66 40 224 51 347 33 398
-21 818 -155 1181 -90 246 -280 579 -451 794 -93 117 -320 341 -434 430 -438
339 -926 538 -1444 589 -100 10 -429 13 -501 5z"/>
<path d="M21377 21108 c10 -18 160 -286 333 -595 l313 -563 399 0 398 0 0 595
0 595 -731 0 -731 0 19 -32z"/>
<path d="M10470 20863 c-988 -36 -1890 -199 -2800 -508 -2581 -876 -4699
-2841 -5773 -5355 -441 -1033 -687 -2086 -757 -3243 -13 -217 -13 -865 0
-1083 68 -1127 307 -2165 733 -3184 595 -1422 1551 -2710 2752 -3706 1501
-1245 3346 -2006 5280 -2179 547 -48 1193 -48 1740 0 1189 106 2365 440 3428
971 1136 569 2129 1337 2977 2304 113 129 383 464 470 585 l65 89 3 -472 2
-472 910 0 c500 0 911 3 913 8 3 4 6 1699 8 3767 l4 3760 -927 3 -928 2 0
-547 c0 -738 -17 -1039 -81 -1488 -183 -1284 -685 -2498 -1462 -3541 -1242
-1667 -3088 -2772 -5127 -3068 -628 -91 -1287 -105 -1925 -40 -1479 149 -2898
734 -4070 1675 -1618 1300 -2652 3179 -2874 5224 -36 323 -44 494 -44 855 0
482 32 875 108 1315 351 2039 1502 3854 3205 5057 997 703 2159 1165 3365
1337 463 66 731 81 1473 81 l562 0 0 930 0 930 -577 -2 c-318 -1 -612 -3 -653
-5z"/>
<path d="M9510 9775 l0 -5165 1133 2 1132 3 3 4233 2 4232 2605 0 2605 0 460
920 c253 506 460 924 460 930 0 7 -1401 10 -4200 10 l-4200 0 0 -5165z"/>
<path d="M18590 14010 l0 -930 930 0 930 0 -2 928 -3 927 -927 3 -928 2 0
-930z"/>
<path d="M21480 9775 l0 -5165 1030 0 1030 0 2 2946 3 2947 1343 -2012 1344
-2012 427 643 c235 354 1301 1958 2369 3565 l1942 2922 0 666 0 665 -801 -2
-801 -3 -1571 -2392 c-864 -1315 -1574 -2390 -1578 -2387 -4 2 -717 1079
-1584 2394 l-1578 2390 -788 0 -789 0 0 -5165z"/>
<path d="M32010 9775 l0 -5165 3405 0 3405 0 0 830 0 830 -2380 0 -2380 0 0
1348 c0 742 3 2274 7 3405 l6 2057 2379 0 2378 0 0 338 c0 185 -3 604 -7 930
l-6 592 -3404 0 -3403 0 0 -5165z"/>
<path d="M29933 10714 l-1023 -705 0 -2700 0 -2699 1030 0 1030 0 0 3405 c0
1873 -3 3405 -7 3404 -5 0 -468 -317 -1030 -705z"/>
<path d="M34885 9670 l465 -930 1115 0 1115 0 0 930 0 930 -1580 0 -1580 0
465 -930z"/>
</g>
</svg>
