<svg id="Layer_1" data-name="Layer 1" xmlns="http://www.w3.org/2000/svg" viewBox="0 0 142.597 38.002"><defs><style>.cls-1{fill:#fff;}</style></defs><title>logo</title><path class="cls-1" d="M38.127,9.5a9.518,9.518,0,0,1-9.5,9.5v0a9.5,9.5,0,1,1,0-19h9.5V9.5Z" transform="translate(-0.125)"/><path class="cls-1" d="M9.625,19a9.519,9.519,0,0,1-9.5-9.5V0l9.5,0a9.5,9.5,0,1,1,0,19v0Z" transform="translate(-0.125)"/><path class="cls-1" d="M38.127,28.5a9.519,9.519,0,0,0-9.5-9.5v0a9.5,9.5,0,1,0,0,19h9.5V28.5Z" transform="translate(-0.125)"/><path class="cls-1" d="M9.625,19a9.519,9.519,0,0,0-9.5,9.5V38l9.5,0a9.5,9.5,0,1,0,0-19v0Z" transform="translate(-0.125)"/><path class="cls-1" d="M48.4,27.205a7.254,7.254,0,0,0,1.759.828,9.006,9.006,0,0,0,3.125.5,4.934,4.934,0,0,0,2.442-.518,3.4,3.4,0,0,0,1.407-1.594,8.335,8.335,0,0,0,.642-2.752q0.144-1.677.145-3.994V4.731H64.7V19.673a48.556,48.556,0,0,1-.352,6.106,11.867,11.867,0,0,1-1.531,4.7A7.819,7.819,0,0,1,59.365,33.5a14.4,14.4,0,0,1-6.084,1.076,10.97,10.97,0,0,1-6.374-1.822Z" transform="translate(-0.125)"/><path class="cls-1" d="M76.044,34.531a6.18,6.18,0,0,1-5.07-2.09q-1.718-2.09-1.718-6.147V12.388h6.622V24.846a5.027,5.027,0,0,0,.786,3.042A2.619,2.619,0,0,0,78.9,28.944a5.136,5.136,0,0,0,2.566-.7A6.01,6.01,0,0,0,83.659,25.8V12.388h6.622V26.668a2.305,2.305,0,0,0,.311,1.386,1.542,1.542,0,0,0,1.1.477v5.587a13.931,13.931,0,0,1-1.614.269q-0.663.063-1.2,0.062-3.559,0-4.056-2.773l-0.124-1.324a9.048,9.048,0,0,1-3.7,3.166A11.741,11.741,0,0,1,76.044,34.531Z" transform="translate(-0.125)"/><path class="cls-1" d="M116.357,34.117h-6.622V21.908a4.879,4.879,0,0,0-.807-3.125,2.633,2.633,0,0,0-2.132-.972,3.681,3.681,0,0,0-1.407.289,5.811,5.811,0,0,0-1.366.807,6.188,6.188,0,0,0-1.179,1.221,5.794,5.794,0,0,0-.807,1.531V34.117H95.414V12.388h5.96v3.642a7.908,7.908,0,0,1,3.394-3,11.515,11.515,0,0,1,5.049-1.055,6.58,6.58,0,0,1,3.394.766,5.5,5.5,0,0,1,1.987,1.987,7.71,7.71,0,0,1,.931,2.67,18.185,18.185,0,0,1,.228,2.815V34.117Z" transform="translate(-0.125)"/><path class="cls-1" d="M131.092,34.531a12.7,12.7,0,0,1-4.946-.91,10.771,10.771,0,0,1-3.663-2.462,10.4,10.4,0,0,1-2.256-3.6,12.369,12.369,0,0,1,0-8.567,10.4,10.4,0,0,1,2.256-3.6,11.019,11.019,0,0,1,3.663-2.484,12.455,12.455,0,0,1,4.946-.931,12.3,12.3,0,0,1,4.925.931,11.079,11.079,0,0,1,3.642,2.484,10.667,10.667,0,0,1,2.276,3.6,11.859,11.859,0,0,1,.786,4.284,12.139,12.139,0,0,1-.766,4.284,10.4,10.4,0,0,1-2.256,3.6,10.771,10.771,0,0,1-3.663,2.462A12.7,12.7,0,0,1,131.092,34.531Zm-4.843-11.258a6.009,6.009,0,0,0,1.365,4.119,4.429,4.429,0,0,0,3.477,1.552,4.37,4.37,0,0,0,1.9-.414,4.575,4.575,0,0,0,1.511-1.159,5.561,5.561,0,0,0,1.013-1.8,6.845,6.845,0,0,0,.373-2.3,6.009,6.009,0,0,0-1.366-4.118,4.382,4.382,0,0,0-3.435-1.552,4.5,4.5,0,0,0-3.456,1.573,5.558,5.558,0,0,0-1.014,1.8A6.865,6.865,0,0,0,126.249,23.274Z" transform="translate(-0.125)"/></svg>