<svg id="Layer_1" data-name="Layer 1" xmlns="http://www.w3.org/2000/svg" xmlns:xlink="http://www.w3.org/1999/xlink" viewBox="0 0 142.596 38"><defs><style>.cls-1{fill:#505c67;}.cls-2{fill:url(#linear-gradient);}.cls-3{fill:url(#linear-gradient-2);}.cls-4{fill:url(#linear-gradient-3);}.cls-5{fill:url(#linear-gradient-4);}</style><linearGradient id="linear-gradient" x1="23.176" y1="1.391" x2="36.606" y2="14.821" gradientUnits="userSpaceOnUse"><stop offset="0" stop-color="#fd6f2d"/><stop offset="1" stop-color="#f83a5e"/></linearGradient><linearGradient id="linear-gradient-2" x1="0.003" y1="-0.003" x2="16.22" y2="16.215" xlink:href="#linear-gradient"/><linearGradient id="linear-gradient-3" x1="21.782" y1="21.785" x2="37.999" y2="38.003" xlink:href="#linear-gradient"/><linearGradient id="linear-gradient-4" x1="1.397" y1="23.179" x2="14.826" y2="36.609" xlink:href="#linear-gradient"/></defs><title>logo-color</title><path class="cls-1" d="M48.275,27.2a7.254,7.254,0,0,0,1.759.828,9.006,9.006,0,0,0,3.125.5,4.934,4.934,0,0,0,2.442-.518,3.4,3.4,0,0,0,1.407-1.594,8.335,8.335,0,0,0,.642-2.752q0.144-1.677.145-3.994V4.731h6.78V19.673a48.555,48.555,0,0,1-.352,6.106,11.867,11.867,0,0,1-1.531,4.7A7.819,7.819,0,0,1,59.24,33.5a14.4,14.4,0,0,1-6.084,1.076,10.97,10.97,0,0,1-6.374-1.822Z"/><path class="cls-1" d="M75.919,34.531a6.18,6.18,0,0,1-5.07-2.09q-1.718-2.09-1.718-6.147V12.388h6.622V24.846a5.027,5.027,0,0,0,.786,3.042,2.619,2.619,0,0,0,2.236,1.056,5.136,5.136,0,0,0,2.566-.7A6.01,6.01,0,0,0,83.534,25.8V12.388h6.622v14.28a2.3,2.3,0,0,0,.311,1.386,1.542,1.542,0,0,0,1.1.477v5.587a13.931,13.931,0,0,1-1.614.269q-0.663.063-1.2,0.062-3.559,0-4.056-2.773l-0.124-1.324a9.048,9.048,0,0,1-3.7,3.166A11.741,11.741,0,0,1,75.919,34.531Z"/><path class="cls-1" d="M116.232,34.117H109.61V21.908a4.879,4.879,0,0,0-.807-3.125,2.633,2.633,0,0,0-2.132-.972,3.681,3.681,0,0,0-1.407.289,5.811,5.811,0,0,0-1.366.807,6.188,6.188,0,0,0-1.179,1.221,5.794,5.794,0,0,0-.807,1.531V34.117H95.289V12.388h5.96V16.03a7.908,7.908,0,0,1,3.394-3,11.515,11.515,0,0,1,5.049-1.055,6.58,6.58,0,0,1,3.394.766,5.5,5.5,0,0,1,1.987,1.987A7.71,7.71,0,0,1,116,17.4a18.185,18.185,0,0,1,.228,2.815v13.9Z"/><path class="cls-1" d="M130.967,34.531a12.7,12.7,0,0,1-4.946-.91,10.771,10.771,0,0,1-3.663-2.462,10.4,10.4,0,0,1-2.256-3.6,12.369,12.369,0,0,1,0-8.567,10.4,10.4,0,0,1,2.256-3.6,11.019,11.019,0,0,1,3.663-2.484,12.455,12.455,0,0,1,4.946-.931,12.3,12.3,0,0,1,4.925.931,11.079,11.079,0,0,1,3.642,2.484,10.667,10.667,0,0,1,2.276,3.6,11.859,11.859,0,0,1,.786,4.284,12.139,12.139,0,0,1-.766,4.284,10.4,10.4,0,0,1-2.256,3.6,10.771,10.771,0,0,1-3.663,2.462A12.7,12.7,0,0,1,130.967,34.531Zm-4.843-11.258a6.009,6.009,0,0,0,1.365,4.119,4.429,4.429,0,0,0,3.477,1.552,4.37,4.37,0,0,0,1.9-.414,4.575,4.575,0,0,0,1.511-1.159,5.561,5.561,0,0,0,1.013-1.8,6.845,6.845,0,0,0,.373-2.3,6.009,6.009,0,0,0-1.366-4.118,4.382,4.382,0,0,0-3.435-1.552,4.5,4.5,0,0,0-3.456,1.573,5.558,5.558,0,0,0-1.014,1.8,6.865,6.865,0,0,0-.368,2.3h0Z"/><path class="cls-2" d="M38,9.5V0H28.5A9.5,9.5,0,1,0,38,9.5Z"/><path class="cls-3" d="M19,9.5A9.5,9.5,0,0,0,9.5,0H0V9.5A9.5,9.5,0,0,0,19,9.5Z"/><path class="cls-4" d="M19,28.5A9.5,9.5,0,0,0,28.5,38H38V28.5A9.5,9.5,0,0,0,19,28.5Z"/><path class="cls-5" d="M0,28.5V38H9.5A9.5,9.5,0,1,0,0,28.5Z"/></svg>